<svg xmlns="http://www.w3.org/2000/svg" data-name="Layer 1" viewBox="0 0 80 80" width="256" height="256"><path fill="#73cdab" d="M61,11.5A6.5,6.5,0,0,1,67.5,5h-44A6.5,6.5,0,0,0,17,11.5V74l1,1,3-3,3,3,3-3,3,3,3-3,3,3,3-3,3,3,3-3,3,3,3-3,3,3,3-3,3,3,1-1Z" class="colorf4f4f4 svgShape"></path><path fill="#6fd9be" d="M73,6,61.5,5A6.5,6.5,0,0,0,55,11.5V74l2-2,3,3,1-1V19H73Z" class="colord6d6d6 svgShape"></path><path fill="none" stroke="#000000" stroke-linecap="round" stroke-linejoin="round" stroke-width="4" d="M17,67v7l1,1,3-3,3,3,3-3,3,3,3-3,3,3,3-3,3,3,3-3,3,3,3-3,3,3,3-3,3,3,1-1V11.5A6.5,6.5,0,0,1,67.5,5" class="colorStroke000 svgStroke"></path><path fill="none" stroke="#000000" stroke-linecap="round" stroke-linejoin="round" stroke-width="4" d="M61,19l1,1,3-3,3,3,3-3,3,3V11.5A6.5,6.5,0,0,0,67.5,5h-44A6.5,6.5,0,0,0,17,11.5V33" class="colorStroke000 svgStroke"></path><circle cx="25" cy="23" r="2"></circle><circle cx="31" cy="23" r="2"></circle><circle cx="37" cy="23" r="2"></circle><line x1="25" x2="53" y1="31" y2="31" fill="none" stroke="#000000" stroke-linecap="round" stroke-miterlimit="10" stroke-width="4" class="colorStroke000 svgStroke"></line><line x1="32" x2="53" y1="39" y2="39" fill="none" stroke="#000000" stroke-linecap="round" stroke-miterlimit="10" stroke-width="4" class="colorStroke000 svgStroke"></line><line x1="35" x2="53" y1="47" y2="47" fill="none" stroke="#000000" stroke-linecap="round" stroke-miterlimit="10" stroke-width="4" class="colorStroke000 svgStroke"></line><line x1="35" x2="53" y1="55" y2="55" fill="none" stroke="#000000" stroke-linecap="round" stroke-miterlimit="10" stroke-width="4" class="colorStroke000 svgStroke"></line><circle cx="17" cy="50" r="11" fill="#ea5a05" stroke="#000000" stroke-linecap="round" stroke-miterlimit="10" stroke-width="4" class="colorff5f5f svgShape colorStroke000 svgStroke"></circle><line x1="20.535" x2="13.464" y1="46.465" y2="53.535" fill="none" stroke="#000000" stroke-linecap="round" stroke-miterlimit="10" stroke-width="4" class="colorStroke000 svgStroke"></line><line x1="20.535" x2="13.464" y1="53.535" y2="46.465" fill="none" stroke="#000000" stroke-linecap="round" stroke-miterlimit="10" stroke-width="4" class="colorStroke000 svgStroke"></line></svg>