<svg id="SvgjsSvg1152" width="550" height="550" xmlns="http://www.w3.org/2000/svg" version="1.1" xmlns:xlink="http://www.w3.org/1999/xlink"><defs id="SvgjsDefs1153"></defs><g id="SvgjsG1154"><svg xmlns="http://www.w3.org/2000/svg" enable-background="new 0 0 600 500" viewBox="0 0 600 500" width="550" height="550"><path d="M276.8 149.3c-.2-.2-.4-.4-.5-.8l-4.5-13.8c0-.2-.1-.3-.1-.4 0-.3.1-.5.3-.7.2-.2.4-.3.7-.3.2 0 .5.1.6.2.2.2.3.4.4.6l3.9 12.7 3.9-12.6c.1-.3.2-.5.4-.6.2-.2.5-.2.7-.2.3 0 .5.1.7.2s.4.4.4.6l3.9 12.6 3.9-12.7c.1-.2.2-.4.4-.6.2-.2.4-.2.6-.2.3 0 .6.1.7.3.2.2.3.4.3.7 0 .1 0 .2-.1.4l-4.5 13.8c-.1.3-.3.6-.5.8-.2.2-.5.3-.8.3-.3 0-.6-.1-.8-.3-.3-.2-.4-.4-.5-.7l-3.7-11.7-3.7 11.7c-.1.3-.3.6-.5.7-.3.2-.5.3-.8.3-.3-.1-.5-.1-.8-.3zM296 135c-.2-.2-.3-.5-.3-.8v-.1c0-.3.1-.6.3-.8.2-.2.5-.3.8-.3h.1c.3 0 .6.1.8.3.2.2.3.5.3.8v.1c0 .3-.1.6-.3.8-.2.2-.5.3-.8.3h-.1c-.3 0-.6-.1-.8-.3zm.1 14.2c-.2-.2-.3-.4-.3-.7v-9.8c0-.3.1-.5.3-.7.2-.2.4-.3.7-.3.3 0 .6.1.8.3.2.2.3.5.3.8v9.8c0 .3-.1.5-.3.7-.2.2-.5.3-.7.3s-.6-.2-.8-.4zM301.2 148.6c-.3-.2-.4-.4-.4-.8 0-.2.1-.5.3-.6.2-.2.4-.3.6-.3.1 0 .3 0 .4.1.5.2 1 .4 1.5.5.5.1 1 .2 1.7.2 1.7 0 2.5-.5 2.5-1.6 0-.4-.2-.6-.6-.8-.4-.2-1-.4-1.9-.6-.9-.2-1.6-.4-2.2-.7-.6-.2-1.1-.6-1.5-1-.4-.5-.6-1.1-.6-1.8 0-1.1.4-1.9 1.2-2.6.8-.7 1.9-1 3.3-1 1.2 0 2.3.2 3.3.6.2.1.4.2.5.3.1.2.2.3.2.5s-.1.5-.3.6c-.2.2-.4.3-.7.3h-.3c-.9-.3-1.8-.4-2.6-.4s-1.5.1-1.9.4c-.5.3-.7.7-.7 1.2s.2.8.6 1c.4.2 1.1.4 2 .6.9.2 1.6.5 2.2.7.6.2 1.1.6 1.5 1 .4.5.6 1.1.6 1.9 0 1-.4 1.8-1.2 2.4-.8.6-1.9 1-3.3 1-1.6 0-3-.4-4.2-1.1zM312.9 149.2c-.2-.2-.3-.4-.3-.7v-14.9c0-.3.1-.5.3-.7.2-.2.4-.3.7-.3s.5.1.7.3c.2.2.3.5.3.7v6c.6-.6 1.2-1.2 1.9-1.5.7-.4 1.5-.6 2.4-.6.8 0 1.6.2 2.2.6.6.4 1.1.9 1.4 1.6.3.7.5 1.4.5 2.3v6.5c0 .3-.1.5-.3.7-.2.2-.5.3-.7.3-.3 0-.5-.1-.7-.3-.2-.2-.3-.4-.3-.7v-6.3c0-1.9-.8-2.8-2.5-2.8-.8 0-1.4.2-2.1.6-.6.4-1.2.9-1.7 1.6v6.9c0 .3-.1.5-.3.7-.2.2-.5.3-.7.3s-.6-.1-.8-.3zM326.8 149.2c-.2-.2-.3-.4-.3-.7v-14.9c0-.3.1-.5.3-.7.2-.2.4-.3.7-.3.3 0 .6.1.8.3.2.2.3.5.3.8v14.9c0 .3-.1.5-.3.7-.2.2-.5.3-.7.3s-.6-.2-.8-.4zM332.4 135c-.2-.2-.3-.5-.3-.8v-.1c0-.3.1-.6.3-.8.2-.2.5-.3.8-.3h.1c.3 0 .6.1.8.3.2.2.3.5.3.8v.1c0 .3-.1.6-.3.8-.2.2-.5.3-.8.3h-.1c-.3 0-.6-.1-.8-.3zm.1 14.2c-.2-.2-.3-.4-.3-.7v-9.8c0-.3.1-.5.3-.7.2-.2.4-.3.7-.3.3 0 .6.1.8.3.2.2.3.5.3.8v9.8c0 .3-.1.5-.3.7-.2.2-.5.3-.7.3s-.6-.2-.8-.4zM337.6 148.6c-.3-.2-.4-.4-.4-.8 0-.2.1-.5.3-.6.2-.2.4-.3.6-.3.1 0 .3 0 .4.1.5.2 1 .4 1.5.5.5.1 1 .2 1.7.2 1.7 0 2.5-.5 2.5-1.6 0-.4-.2-.6-.6-.8-.4-.2-1-.4-1.9-.6-.9-.2-1.6-.4-2.2-.7-.6-.2-1.1-.6-1.5-1-.4-.5-.6-1.1-.6-1.8 0-1.1.4-1.9 1.2-2.6.8-.7 1.9-1 3.3-1 1.2 0 2.3.2 3.3.6.2.1.4.2.5.3.1.2.2.3.2.5s-.1.5-.3.6c-.2.2-.4.3-.7.3h-.3c-.9-.3-1.8-.4-2.6-.4s-1.5.1-1.9.4c-.5.3-.7.7-.7 1.2s.2.8.6 1c.4.2 1.1.4 2 .6.9.2 1.6.5 2.2.7.6.2 1.1.6 1.5 1 .4.5.6 1.1.6 1.9 0 1-.4 1.8-1.2 2.4-.8.6-1.9 1-3.3 1-1.6 0-3-.4-4.2-1.1zM349.6 146.6v-7.1H348c-.1 0-.2 0-.3-.1-.1-.1-.1-.2-.1-.3 0-.2.1-.3.2-.4l3.1-3.1c.1-.1.3-.2.4-.2.1 0 .2 0 .3.1s.1.2.1.3v1.8h2.6c.3 0 .5.1.6.3.2.2.3.4.3.6 0 .2-.1.5-.3.6-.2.2-.4.3-.6.3h-2.6v6.9c0 .6.1 1 .4 1.1.3.2.6.2 1.1.2.3 0 .6 0 .9-.1h.5c.2 0 .4.1.6.2.2.2.3.4.3.6 0 .4-.2.6-.5.8-.6.3-1.2.4-1.9.4-2.4.2-3.5-.9-3.5-2.9z"></path><path fill="#d2fff1" d="M94.7 421.2h423.7c19.3 0 35.7-14.9 37.6-34.5v-.4c.9-10.1-1.3-21.5-9.1-27.8-6.2-5-15-6.1-21-11.4-9.2-8.3-8.1-23.1-5.7-35.5 4.7-24.3 11.3-48.2 19.9-71.4 4.6-12.5 9.9-25.5 8.5-38.9-.4-3.4-1.2-6.8-3.5-9.3-7.4-7.8-21.2 1-30.6-4-8.3-4.4-8.2-16.6-6.1-25.9 5-21.3 14.8-44.5 5.1-64.1-8.3-16.8-27.9-23.9-45.9-27.5-24.9-4.9-50.8-6-75.5-.2-28.3 6.7-53.8 22-81.4 31.3-27.5 9.3-60.1 11.7-83.5-5.8-20.8-15.5-27.2-40.1-76.9-34.9-29.2 3.1-57.6 14-81.5 31.3-6.7 4.9-13.5 10.8-15.4 19-3.6 14.9 9.8 27.6 19.1 39.7C88.9 172 95 201 88.7 227.2c-7 28.7-27.4 52.1-37.1 79.9-9.7 28-7.5 60.1 5.8 86.6 1.9 3.7 3.9 7.3 6.2 10.7 7 10.6 18.7 16.8 31.1 16.8z" opacity=".3" class="colord2e4ff svgShape"></path><path fill="#040605" d="m225.7 294.7-3.6-1.8.5-.9 3.6 1.8-.5.9zm-7.2-3.7c-1.2-.7-2.3-1.4-3.4-2.1l.5-.8c1.1.7 2.3 1.4 3.4 2l-.5.9zm-6.8-4.3c-1.1-.8-2.2-1.5-3.3-2.3l.6-.8c1.1.8 2.1 1.6 3.2 2.3l-.5.8zm-6.4-4.8c-1-.8-2.1-1.7-3.1-2.6l.7-.8c1 .9 2 1.7 3 2.6l-.6.8zm-6-5.3c-1-.9-1.9-1.9-2.9-2.8l.7-.7 2.8 2.8-.6.7zm-5.6-5.8c-.9-1-1.8-2-2.6-3l.8-.6c.8 1 1.7 2 2.6 3l-.8.6zm-5.2-6.1c-.8-1.1-1.6-2.2-2.4-3.2l.8-.6c.8 1.1 1.6 2.2 2.4 3.2l-.8.6zm-4.6-6.6c-.7-1.1-1.4-2.3-2.1-3.4l.9-.5c.7 1.1 1.4 2.3 2.1 3.4l-.9.5zm-4.1-6.9c-.6-1.2-1.3-2.4-1.9-3.6l.9-.4c.6 1.2 1.2 2.4 1.8 3.5l-.8.5zm-3.6-7.2c-.6-1.2-1.1-2.5-1.6-3.7l.9-.4c.5 1.2 1 2.4 1.6 3.7l-.9.4zm-3-7.5c-.5-1.3-.9-2.5-1.3-3.8l1-.3c.4 1.3.8 2.5 1.3 3.8l-1 .3zm-2.4-7.6c-.3-1.3-.7-2.6-1-3.9l1-.2.9 3.9-.9.2zM169 221c-.2-1.3-.4-2.6-.6-4l1-.1.6 3.9-1 .2zm-1-7.9c-.1-1.3-.2-2.7-.3-4h1c.1 1.3.1 2.7.3 4h-1zm.6-8.1h-1c0-1.3 0-2.7.1-4l1 .1c-.1 1.3-.1 2.6-.1 3.9zm.4-7.9-1-.1c.1-1.3.3-2.7.5-4l1 .1c-.2 1.3-.4 2.7-.5 4zm1.2-7.9-1-.2.9-3.9 1 .3c-.3 1.2-.6 2.5-.9 3.8zm2-7.6-1-.3c.4-1.3.9-2.6 1.4-3.8l.9.4c-.4 1.1-.9 2.4-1.3 3.7zm3-7.4-.9-.4c.6-1.2 1.2-2.4 1.9-3.6l.9.5c-.8 1.1-1.4 2.3-1.9 3.5zm3.8-6.9-.8-.6c.7-1.1 1.5-2.2 2.4-3.3l.8.6-2.4 3.3zm4.9-6.3-.7-.7c.9-1 1.9-2 2.8-2.9l.7.7c-1 1-1.9 2-2.8 2.9zm226.4-3.6h-1.2v-1h4v1h-2.8zm-5.2 0c-1.3 0-2.7-.1-4-.1v-1c1.3 0 2.7.1 4 .1v1zm12-.1v-1c1.3 0 2.7-.1 4-.2v1c-1.3.2-2.6.2-4 .2zm-20-.2c-1.3-.1-2.7-.1-4-.2l.1-1c1.3.1 2.7.2 4 .2l-.1 1zm28-.1-.1-1c1.3-.1 2.7-.2 4-.3l.1 1c-1.3.1-2.6.2-4 .3zm-36-.4c-1.3-.1-2.7-.2-4-.3l.1-1c1.3.1 2.7.2 4 .3l-.1 1zm44-.3-.1-1c1.3-.1 2.6-.3 4-.5l.1 1c-1.3.2-2.7.3-4 .5zm-52-.4c-1.3-.1-2.7-.3-4-.4l.1-1c1.3.1 2.6.3 4 .4l-.1 1zm-191.4-.3-.6-.8c1-.8 2.1-1.6 3.3-2.4l.6.8c-1.2.8-2.3 1.6-3.3 2.4zm251.4-.4-.2-1c1.3-.2 2.6-.4 3.9-.7l.2 1c-1.3.3-2.6.5-3.9.7zm-68-.1c-1.3-.2-2.7-.3-4-.5l.1-1c1.3.2 2.6.3 4 .5l-.1 1zm-7.9-1c-1.3-.2-2.6-.4-4-.5l.1-1c1.3.2 2.6.4 4 .5l-.1 1zm83.8-.3-.2-1c1.3-.3 2.6-.5 3.9-.8l.2 1c-1.3.3-2.6.6-3.9.8zm-91.7-.8c-1.3-.2-2.6-.4-4-.6l.1-1c1.3.2 2.6.4 4 .6l-.1 1zm99.5-.9-.2-1c1.3-.3 2.6-.7 3.9-1l.3 1c-1.4.3-2.7.6-4 1zm-107.5-.3c-1.3-.2-2.6-.4-4-.6l.2-1c1.3.2 2.6.4 4 .6l-.2 1zm-153.1-.6-.5-.9c1.1-.7 2.3-1.3 3.6-1.9l.4.9c-1.2.6-2.4 1.2-3.5 1.9zm145.2-.6-3.9-.6.2-1 3.9.6-.2 1zm123.1-.7-.3-1c1.3-.4 2.5-.8 3.8-1.2l.3.9c-1.2.5-2.5.9-3.8 1.3zm-131-.6-3.9-.6.2-1 3.9.6-.2 1zm-7.9-1.3-3.9-.6.2-1 3.9.6-.2 1zm-122.3-.4-.4-.9c1.2-.5 2.5-1 3.8-1.5l.3.9c-1.2.6-2.5 1-3.7 1.5zm268.8-.3-.3-.9c1.2-.5 2.5-.9 3.7-1.4l.4.9c-1.3.5-2.5 1-3.8 1.4zm-154.4-.6-3.9-.6.2-1c1.3.2 2.6.4 4 .6l-.3 1zm-7.9-1.2c-1.3-.2-2.6-.4-4-.6l.1-1c1.3.2 2.6.4 4 .6l-.1 1zm-99-.5-.3-1c1.3-.4 2.6-.7 3.9-1.1l.2 1c-1.3.3-2.6.7-3.8 1.1zm268.8-.7-.4-.9c1.2-.5 2.4-1.1 3.6-1.7l.4.9c-1.2.6-2.4 1.2-3.6 1.7zm-177.7 0c-1.3-.2-2.6-.4-4-.5l.1-1c1.3.2 2.6.4 4 .5l-.1 1zm-7.9-1.1c-1.3-.2-2.6-.3-4-.5l.1-1c1.3.2 2.6.3 4 .5l-.1 1zm-75.5-.2-.2-1c1.3-.3 2.6-.5 3.9-.8l.2 1c-1.3.3-2.6.5-3.9.8zm67.6-.7c-1.3-.1-2.6-.3-4-.4l.1-1c1.3.1 2.7.3 4 .4l-.1 1zm-59.7-.7-.1-1c1.3-.2 2.7-.3 4-.5l.1 1c-1.4.2-2.7.4-4 .5zm51.7-.1c-1.3-.1-2.7-.2-4-.3l.1-1c1.3.1 2.7.2 4 .3l-.1 1zm208.7-.6-.5-.9c1.2-.6 2.4-1.2 3.5-1.9l.5.9c-1.1.6-2.3 1.3-3.5 1.9zm-216.6-.1c-1.3-.1-2.7-.2-4-.2l.1-1c1.3.1 2.7.2 4 .2l-.1 1zm-35.9 0-.1-1c1.3-.1 2.7-.2 4-.3l.1 1c-1.4.1-2.7.2-4 .3zm27.9-.4c-1.3-.1-2.7-.1-4-.1v-1c1.3 0 2.7.1 4 .1v1zm-20-.1v-1c1.3-.1 2.7-.1 4-.1v1c-1.3 0-2.6.1-4 .1zm12-.1h-4v-1h4v1zm239.6-3.2-.5-.9c1.1-.7 2.3-1.4 3.4-2.1l.5.8c-1.1.8-2.2 1.5-3.4 2.2zm6.8-4.4-.6-.8c1.1-.8 2.2-1.5 3.2-2.3l.6.8c-1 .8-2.1 1.6-3.2 2.3z" class="color060405 svgShape"></path><path fill="#2af2b5" d="M479.5 310.9c0 .1-.1.1-.1.2-.9 1.7-2 3.1-3.4 4.3-.2.2-.5.4-.7.6-1 .8-2.2 1.6-3.4 2.2-5.9 2.8-13.5 2.9-19.8.5-.9-.3-1.7-.7-2.6-1.1-1-.5-2-1.1-2.9-1.8-3.6-2.7-6.1-6.5-7.2-10.7-1.3-4.8-.9-10 1.5-14.8 2.5-4.7 6.5-8 11.1-9.7 5.1-1.8 10.9-1.6 16.1 1.1 9.9 5.2 16.3 19.3 11.4 29.2z" class="colorf2cb2a svgShape"></path><path fill="#2af2b5" d="M481.2 310.9c0 .1.1.2.1.2.9 1.7 2 3.1 3.4 4.3 1.2 1.1 2.6 2 4.1 2.7 6.7 3.2 15.6 2.9 22.4-.6 5.1-2.7 8.7-7.3 10.1-12.5 1.3-4.8.9-10-1.5-14.8-5.2-9.9-17.4-13.7-27.2-8.6-10 5.3-16.4 19.4-11.4 29.3z" class="colorf2cb2a svgShape"></path><path fill="#ffffff" d="M479.5 310.9c0 .1-.1.2-.1.2-.9 1.7-2 3.1-3.4 4.3-.1.1-.3.3-.5.4-.2.1-.3.3-.5.4-.3.3-.7.5-1 .7-.2.1-.3.2-.5.3-.5.3-1.1.6-1.6.9-8.8-4.2-14.2-13.7-12.6-24.1 6.7.6 12.4 3.9 16.1 8.6 1.8 2.5 3.2 5.3 4.1 8.3z" class="colorfff svgShape"></path><path fill="#02efa7" d="M471.9 318.2c-5.9 2.8-13.5 2.9-19.8.5-.9-.3-1.7-.7-2.6-1.1-1-.5-2-1.1-2.9-1.8-3.6-2.7-6.1-6.5-7.2-10.7 3.3-2.8 4.5-7.5 8.4-10 1.4-.9 2.9-1.5 4.3-1.7 3.9-.7 7.1.7 7.1.7-1.3 8.9 2.4 17.1 9 21.9 1.1.8 2.3 1.5 3.7 2.2z" class="colorefc102 svgShape"></path><path fill="#ffffff" d="M481.2 310.9c0 .1.1.2.1.2.9 1.7 2 3.1 3.4 4.3.1.1.3.3.5.4.2.1.3.3.5.4.3.3.7.5 1 .7.2.1.3.2.5.3.5.3 1.1.6 1.6.9 8.8-4.2 14.2-13.7 12.6-24.1-6.7.6-12.4 3.9-16.1 8.6-1.9 2.5-3.3 5.3-4.1 8.3z" class="colorfff svgShape"></path><path fill="#02efa7" d="M488.5 317.5c6.7 3.2 15.6 2.9 22.4-.6 5.1-2.7 8.7-7.3 10.1-12.5-3.3-2.8-4.5-7.5-8.4-10-5.6-3.6-11.4-1-11.4-1 1.5 10.4-3.9 19.9-12.7 24.1z" class="colorefc102 svgShape"></path><path fill="#040605" d="M491.8 316.8h-22.9c.6-6.6 5.5-11.7 11.4-11.7 6 0 10.9 5.2 11.5 11.7z" class="color060405 svgShape"></path><path fill="#45ffc7" d="M546 341.5v75.1c0 2.5-2 4.6-4.6 4.6H417.7c-2.5 0-4.5-2-4.5-4.6v-75.1H546z" class="colorff7545 svgShape"></path><path fill="#2af2b5" d="M488.3 342v79.2h-17.5v-79.3z" class="colorf2cb2a svgShape"></path><path d="M546 341.5v9.1l-132.9-1.3v-7.8z" opacity=".1"></path><path fill="#45ffc7" d="m555.2 320.4-.2 18.7c0 2-1.7 3.6-3.6 3.6H546l-59.3-.6-14.3-.1-20.4-.2-23-.2-20.1-.2c-2 0-3.6-1.7-3.6-3.6l.2-18.7c0-2 1.6-3.6 3.6-3.6l37.4.3h5.4l16.1.1h7.1l11.5.1 64.9.6c2.1.2 3.7 1.8 3.7 3.8z" class="colorff7545 svgShape"></path><path fill="#2af2b5" d="M488.3 316v26.9l-17.5-.1V316z" class="colorf2cb2a svgShape"></path><path d="M452.1 280.6v119.6c0 10-6.9 18.5-16.2 20.9h-18.2c-2.5 0-4.5-2-4.5-4.6v-75.1h15.9l-20.1-.2c-2 0-3.6-1.7-3.6-3.6l.2-18.7c0-2 1.6-3.6 3.6-3.6l37.4.3c-3.6-2.7-6.1-6.5-7.2-10.7-1.3-4.8-.9-10 1.5-14.8 2.5-4.5 6.5-7.8 11.2-9.5z" opacity=".1"></path><path fill="#040605" d="M445.7 98.5v301.8c0 11.9-9.6 21.6-21.6 21.6H260.8c-11.9 0-21.6-9.7-21.6-21.6V98.5c0-11.9 9.7-21.6 21.6-21.6h163.3c11.9 0 21.6 9.7 21.6 21.6z" class="color060405 svgShape"></path><path fill="#ffffff" d="M260.8 412.9c-7 0-12.7-5.7-12.7-12.7V98.5c0-7 5.7-12.7 12.7-12.7h163.3c7 0 12.7 5.7 12.7 12.7v301.8c0 7-5.7 12.7-12.7 12.7H260.8z" class="colorfff svgShape"></path><path fill="#040605" d="m384.1 83.9-5.3 12.6c-.7 1.6-2.3 2.7-4 2.7h-64.6c-1.8 0-3.4-1.1-4-2.7l-5.3-12.6h83.2z" class="color060405 svgShape"></path><path fill="#ffffff" d="M363.6 92.3h-33.5c-1.2 0-2.2-1-2.2-2.2v-.7c0-1.2 1-2.2 2.2-2.2h33.5c1.2 0 2.2 1 2.2 2.2v.7c.1 1.2-.9 2.2-2.2 2.2z" class="colorfff svgShape"></path><circle cx="321.3" cy="89.8" r="3.4" fill="#ffffff" class="colorfff svgShape"></circle><path d="M239.1 119v268.6h145.8c4.5 0 8.1-3.6 8.1-8.1V231.1l31.4.1c-5.7 0-10.2-4.6-10.2-10.3l.6-92.3c0-5.3-4.3-9.6-9.6-9.7h-2.6.5-164z" opacity=".05"></path><path d="m417.5 224.7-182.5-.6c-3.4 0-6.1-2.8-6.1-6.1l.7-99.9c0-3.4 2.8-5.6 6.1-5.6h162.6c5.3 0 9.6 4.4 9.6 9.7l-.7 92.3c0 5.6 4.6 10.2 10.3 10.2z"></path><path fill="#040605" d="m417.5 225.2-182.5-.6c-3.7 0-6.6-3-6.6-6.6l.7-99.9c0-3.5 2.8-6.1 6.6-6.1h162.6c5.6 0 10.1 4.6 10.1 10.2l-.7 92.3c0 2.6 1 5.1 2.8 6.9s4.3 2.9 6.9 2.9l.1.9zM235.7 113c-3.3 0-5.6 2.1-5.6 5.1l-.7 99.9c0 3.1 2.5 5.6 5.6 5.6l178 .6c-1.1-.5-2.2-1.3-3.1-2.2-2-2-3.1-4.7-3.1-7.6l.7-92.3c0-5-4.1-9.1-9.1-9.2H235.7z" class="color060405 svgShape"></path><path fill="#ffffff" d="M207.6 120.6V373c0 4.5 3.6 8.1 8.1 8.1h162.2c4.5 0 8.1-3.6 8.1-8.1V122.7c0-5.7 4.6-10.2 10.2-10.2H215.7c-4.5 0-8.1 3.6-8.1 8.1z" class="colorfff svgShape"></path><path fill="#040605" d="M377.9 381.6H215.7c-4.7 0-8.6-3.9-8.6-8.6V120.6c0-4.7 3.8-8.6 8.6-8.6h180.5v1c-5.4 0-9.7 4.4-9.7 9.7V373c0 4.7-3.8 8.6-8.6 8.6zM215.7 113c-4.2 0-7.6 3.4-7.6 7.6V373c0 4.2 3.4 7.6 7.6 7.6h162.2c4.2 0 7.6-3.4 7.6-7.6V122.7c0-4.3 2.5-8 6.2-9.7h-176z" class="color060405 svgShape"></path><path fill="#52cca7" d="M353.9 163H241c-2.1 0-3.8-1.7-3.8-3.8v-27.4c0-2.1 1.7-3.8 3.8-3.8h112.8c2.1 0 3.8 1.7 3.8 3.8v27.4c.1 2-1.6 3.8-3.7 3.8z" class="color6193f6 svgShape"></path><path fill="#ffffff" d="M266.9 138.6c-.2 0-.5.1-.6.2-.2.1-.3.3-.4.6l-3.2 10.6-3.2-10.5c-.1-.3-.2-.5-.4-.6-.4-.3-1-.3-1.4 0-.2.2-.4.4-.4.6l-3.2 10.5-3.2-10.6c-.1-.2-.2-.4-.4-.6-.2-.2-.4-.2-.6-.2-.3 0-.5.1-.7.3-.2.2-.3.4-.3.7 0 .1 0 .2.1.4l3.9 12c.1.3.3.6.5.7.5.3 1.1.3 1.6 0 .2-.2.4-.4.5-.7l3.1-9.8 3.1 9.7c.1.3.3.5.5.7.2.2.5.3.8.3.3 0 .6-.1.8-.3.2-.2.4-.4.5-.7l3.9-12c0-.2.1-.3.1-.4 0-.3-.1-.5-.3-.7-.6-.1-.8-.2-1.1-.2zM272.1 138.6c-.3 0-.5.1-.7.3-.2.2-.3.4-.3.7v12.3c0 .3.1.5.3.7.2.2.4.3.7.3.3 0 .5-.1.7-.3.2-.2.3-.4.3-.7v-12.3c0-.3-.1-.5-.3-.7-.2-.2-.4-.3-.7-.3zM285 145.6c-.6-.3-1.5-.5-2.5-.8-.8-.2-1.4-.4-1.9-.5-.5-.2-.8-.4-1.1-.7-.3-.3-.4-.6-.4-1.1 0-.7.3-1.2.9-1.6.6-.4 1.5-.6 2.5-.6 1.1 0 2.1.2 3.2.5.1.1.3.1.4.1.3 0 .5-.1.7-.3.2-.2.2-.4.2-.7 0-.4-.2-.8-.6-.9-1.2-.4-2.5-.7-4-.7-1.1 0-2.1.2-2.8.6-.8.4-1.4.9-1.8 1.5-.4.6-.6 1.3-.6 2.1 0 .9.3 1.6.7 2.1.5.5 1.1.9 1.8 1.2.7.3 1.5.5 2.6.8.8.2 1.4.4 1.9.5.4.1.8.3 1.1.6.3.2.4.5.4.9 0 1.5-1.1 2.2-3.4 2.2-1.4 0-2.7-.3-3.9-.8-.1-.1-.3-.1-.4-.1-.3 0-.5.1-.7.3-.2.2-.3.4-.3.7 0 .2.1.4.2.6.1.2.3.3.5.4 1.5.6 3.1 1 4.8 1 1 0 1.9-.2 2.7-.5.8-.3 1.4-.8 1.8-1.4.4-.6.7-1.3.7-2.1 0-.9-.2-1.7-.7-2.2-.7-.4-1.3-.8-2-1.1zM301.3 138.6c-.3 0-.5.1-.7.3-.2.2-.3.4-.3.7v5.2H293v-5.2c0-.3-.1-.5-.3-.7-.2-.2-.4-.3-.7-.3-.3 0-.5.1-.7.3-.2.2-.3.4-.3.7v12.3c0 .3.1.5.3.7.2.2.4.3.7.3.3 0 .5-.1.7-.3.2-.2.3-.4.3-.7v-5.2h7.3v5.2c0 .3.1.5.3.7s.4.3.7.3c.3 0 .5-.1.7-.3.2-.2.3-.4.3-.7v-12.3c0-.3-.1-.5-.3-.7-.2-.2-.4-.3-.7-.3zM315.4 150.8H309v-11.1c0-.3-.1-.5-.3-.7-.2-.2-.4-.3-.7-.3-.3 0-.5.1-.7.3-.2.2-.3.4-.3.7v11.8c0 .4.1.7.4 1 .3.3.6.4 1 .4h7c.3 0 .5-.1.7-.3.2-.2.3-.4.3-.7 0-.3-.1-.5-.3-.7s-.4-.4-.7-.4zM320.4 138.6c-.3 0-.5.1-.7.3-.2.2-.3.4-.3.7v12.3c0 .3.1.5.3.7.2.2.4.3.7.3.3 0 .5-.1.7-.3.2-.2.3-.4.3-.7v-12.3c0-.3-.1-.5-.3-.7-.2-.2-.4-.3-.7-.3zM333.3 145.6c-.6-.3-1.5-.5-2.5-.8-.8-.2-1.4-.4-1.9-.5-.5-.2-.8-.4-1.1-.7-.3-.3-.4-.6-.4-1.1 0-.7.3-1.2.9-1.6.6-.4 1.5-.6 2.5-.6 1.1 0 2.1.2 3.2.5.1.1.3.1.4.1.3 0 .5-.1.7-.3.2-.2.2-.4.2-.7 0-.4-.2-.8-.6-.9-1.2-.4-2.5-.7-4-.7-1.1 0-2.1.2-2.8.6-.8.4-1.4.9-1.8 1.5-.4.6-.6 1.3-.6 2.1 0 .9.3 1.6.7 2.1.5.5 1.1.9 1.8 1.2.7.3 1.5.5 2.6.8.8.2 1.4.4 1.9.5.4.1.8.3 1.1.6.3.2.4.5.4.9 0 1.5-1.1 2.2-3.4 2.2-1.4 0-2.7-.3-3.9-.8-.1-.1-.3-.1-.4-.1-.3 0-.5.1-.7.3-.2.2-.3.4-.3.7 0 .2.1.4.2.6.1.2.3.3.5.4 1.5.6 3.1 1 4.8 1 1 0 1.9-.2 2.7-.5.8-.3 1.4-.8 1.8-1.4.4-.6.7-1.3.7-2.1 0-.9-.2-1.7-.7-2.2-.7-.4-1.3-.8-2-1.1zM348.4 139c-.2-.2-.4-.3-.7-.3h-9.9c-.3 0-.5.1-.7.3-.2.2-.3.4-.3.7 0 .3.1.5.3.7.2.2.4.3.7.3h3.9V152c0 .3.1.5.3.7.2.2.4.3.7.3.3 0 .5-.1.7-.3.2-.2.3-.4.3-.7v-11.3h3.9c.3 0 .5-.1.7-.3.2-.2.3-.4.3-.7.1-.3 0-.5-.2-.7z" class="colorfff svgShape"></path><path fill="#bdffeb" d="M238.8 216.4c-10.4 0-18.9-8.4-18.9-18.9 0-10.4 8.4-18.9 18.9-18.9 10.4 0 18.9 8.4 18.9 18.9 0 10.4-8.5 18.9-18.9 18.9z" class="colorbdd6ff svgShape"></path><path fill="#ffffff" d="m233.6 205.5-4.5-4.5c-.8-.8-.8-2.1 0-2.9.8-.8 2.1-.8 2.9 0l3 3 11.5-11.5c.8-.8 2.1-.8 2.9 0 .8.8.8 2.1 0 2.9l-13 13c-.7.8-2 .8-2.8 0z" class="colorfff svgShape"></path><path fill="#d2fff1" d="M270.9 186.8h51.4v8.3h-51.4zM270.9 199h93.2v2.7h-93.2zM270.9 205.6h38v2.7h-38zM315.3 205.6h6.2v2.7h-6.2zM333.2 205.6h4v2.7h-4z" class="colord2e4ff svgShape"></path><path fill="#bdffeb" d="M238.8 263.6c-10.4 0-18.9-8.4-18.9-18.9 0-10.4 8.4-18.9 18.9-18.9 10.4 0 18.9 8.4 18.9 18.9 0 10.4-8.5 18.9-18.9 18.9z" class="colorbdd6ff svgShape"></path><path fill="#ffffff" d="m233.6 252.7-4.5-4.5c-.8-.8-.8-2.1 0-2.9.8-.8 2.1-.8 2.9 0l3 3 11.5-11.5c.8-.8 2.1-.8 2.9 0 .8.8.8 2.1 0 2.9l-13 13c-.7.8-2 .8-2.8 0z" class="colorfff svgShape"></path><path fill="#d2fff1" d="M270.9 233.9h51.4v8.3h-51.4zM270.9 246.1h93.2v2.7h-93.2zM270.9 252.7h38v2.7h-38zM315.3 252.7h6.2v2.7h-6.2zM333.2 252.7h4v2.7h-4z" class="colord2e4ff svgShape"></path><path fill="#bdffeb" d="M238.8 310.7c-10.4 0-18.9-8.4-18.9-18.9 0-10.4 8.4-18.9 18.9-18.9 10.4 0 18.9 8.4 18.9 18.9 0 10.5-8.5 18.9-18.9 18.9z" class="colorbdd6ff svgShape"></path><path fill="#ffffff" d="M235 300.4c-.5 0-1.1-.2-1.5-.6l-4.5-4.5c-.8-.8-.8-2.1 0-2.9.8-.8 2.1-.8 2.9 0l3 3 11.5-11.5c.8-.8 2.1-.8 2.9 0 .8.8.8 2.1 0 2.9l-13 13c-.2.4-.8.6-1.3.6z" class="colorfff svgShape"></path><path fill="#d2fff1" d="M270.9 281.1h51.4v8.3h-51.4zM270.9 293.3h93.2v2.7h-93.2zM270.9 299.9h38v2.7h-38zM315.3 299.9h6.2v2.7h-6.2zM333.2 299.9h4v2.7h-4z" class="colord2e4ff svgShape"></path><path fill="#bdffeb" d="M238.8 357.9c-10.4 0-18.9-8.4-18.9-18.9 0-10.4 8.4-18.9 18.9-18.9 10.4 0 18.9 8.4 18.9 18.9 0 10.5-8.5 18.9-18.9 18.9z" class="colorbdd6ff svgShape"></path><path fill="#ffffff" d="m233.6 347-4.5-4.5c-.8-.8-.8-2.1 0-2.9.8-.8 2.1-.8 2.9 0l3 3 11.5-11.5c.8-.8 2.1-.8 2.9 0 .8.8.8 2.1 0 2.9l-13 13c-.7.8-2 .8-2.8 0z" class="colorfff svgShape"></path><path fill="#d2fff1" d="M270.9 328.3h51.4v8.3h-51.4zM270.9 340.5h93.2v2.7h-93.2zM270.9 347.1h38v2.7h-38zM315.3 347.1h6.2v2.7h-6.2zM333.2 347.1h4v2.7h-4z" class="colord2e4ff svgShape"></path><path fill="#52cca7" d="M152 424.5v-3.3h-19.9c-.3 6.4-.8 18.6-.9 18.6h32.4c1-10.7-11.6-15.3-11.6-15.3z" class="color6193f6 svgShape"></path><path fill="#040605" d="M163.1 435.1c.4 1.4.6 2.9.4 4.6h-32.4c.1 0 .2-1.9.3-4.6h31.7z" class="color060405 svgShape"></path><path fill="#52cca7" d="M79.9 424.5v-3.3H60c-.3 6.4-.8 18.6-.9 18.6h32.4c1.1-10.7-11.6-15.3-11.6-15.3z" class="color6193f6 svgShape"></path><path fill="#040605" d="M91 435.1c.4 1.4.6 2.9.4 4.6H59.1c.1 0 .2-1.9.3-4.6H91zM154.1 423.3l-10.9-158.2-38.9 7.6 26.5 150.6c.1 1.7 23.3 1.7 23.3 0z" class="color060405 svgShape"></path><path fill="#040605" d="M82.4 424.6 123 267.5l-40.7 1.9-23.2 155.2c0 1.5 23.3 1.5 23.3 0z" class="color060405 svgShape"></path><path fill="#2af2b5" d="M77.3 196.5c4.4-7.4 45.3-11.9 56.4-2.9 8.3 6.8 12 89.1 12 89.1.6 8.2-70.4 8.7-71 .6 0-.1-1.9-79.2 2.6-86.8z" class="colorf2cb2a svgShape"></path><path fill="#ffffff" d="M212.3 205.9s-29.5 37.7-40.4 39.4c-7.7 1.2-29.9-15-29.9-15l13.3-19.6 15.8 8.8 34-20.9c-.1-.3-1.5-9.9.5-9.8 2.1.1 3.3 4.6 3.3 4.6s8.8-13 11.3-11.9c2.5 1.1-6.1 12.5-6.1 12.5s5 3.1 5.6 6.6c.6 3.5-7.4 5.3-7.4 5.3z" class="colorfff svgShape"></path><path fill="#040605" d="M171.1 245.8c-8.5 0-28.4-14.5-29.3-15.2-.2-.2-.3-.5-.1-.7l13.3-19.6c.1-.2.4-.3.7-.2l15.5 8.7 33.4-20.6c-.2-1.6-1.1-8.1.2-9.6.3-.4.7-.4.9-.4 1.8.1 2.9 2.5 3.4 4 2.6-3.8 8.9-12.3 11.4-11.2.4.2.6.5.7.9.6 2.5-4.8 10-6.3 12 1.3.9 4.8 3.6 5.3 6.7.6 3.7-6.4 5.5-7.6 5.8-2.3 2.9-29.9 37.7-40.6 39.4h-.9zm-28.4-15.7c3 2.1 22.3 15.7 29.1 14.7 10.6-1.7 39.8-38.8 40.1-39.2.1-.1.2-.2.3-.2 2.1-.5 7.4-2.2 7-4.7-.6-3.3-5.3-6.3-5.3-6.3-.1-.1-.2-.2-.2-.3 0-.1 0-.3.1-.4 2.7-3.6 6.8-9.9 6.4-11.6 0-.1-.1-.2-.1-.2-1.3-.6-6.6 5.6-10.7 11.7-.1.2-.3.2-.5.2s-.3-.2-.4-.4c-.3-1.1-1.4-4.1-2.8-4.2l-.1.1c-1 1.1-.2 8 .1 9.1v.1c0 .2-.1.3-.2.4l-34 20.9c-.2.1-.3.1-.5 0l-15.4-8.6-12.9 18.9z" class="color060405 svgShape"></path><path fill="#2af2b5" d="M125.9 190.1s9.2 2.6 18.1 7.8c7.3 4.2 19 14.9 19 14.9.1 4.6-13.9 24.6-15.6 23.7l-18.7-13-2.8-33.4z" class="colorf2cb2a svgShape"></path><path fill="#040605" d="M142.1 233.7c-.3 0-.5-.2-.5-.4l-1.8-15.7c0-.3.2-.5.4-.6.3 0 .5.2.6.4l1.8 15.7c0 .3-.2.5-.5.6z" class="color060405 svgShape"></path><path fill="#ffffff" d="M109.5 182s2.3 4.4 4.8 8.3c1.9 3-1.7 8.6-5 10.3-5.3 2.8-15.8-9.8-15.8-9.8l-.4-27.8 16.4 19z" class="colorfff svgShape"></path><path fill="#040605" d="m93.2 191.2-.1-.1-.4-29.4 17.3 20.2s2.3 4.4 4.8 8.3c.7 1 .8 2.4.4 3.9-.7 2.8-3.1 5.8-5.5 7.1-4.9 2.4-13.2-6-16.5-10zm.9-.6c2.9 3.5 11 11.7 15 9.6 2.2-1.1 4.4-4 5-6.5.2-.9.4-2.1-.3-3.1-2.4-3.7-4.5-7.8-4.8-8.3l-15.4-17.9.5 26.2z" class="color060405 svgShape"></path><path fill="#ffffff" d="M93.8 159.4c.3.4 2.8 26.2 18.4 24.5s11.5-33.9 4.6-41c-7-7.1-21.1-.7-21.1-.7L91 153.4l2.8 6z" class="colorfff svgShape"></path><path fill="#040605" d="M110.7 184.4c-8.5 0-14.6-8.5-17.2-24.1-.1-.4-.1-.6-.1-.8l-3-6.3 4.8-11.6.2-.1c.6-.3 14.6-6.5 21.7.8 5.2 5.3 8.5 22.8 4.7 33.3-1.8 5.1-5.1 8.1-9.6 8.6-.5.2-1 .2-1.5.2zm-16.5-25.3c.1.1.1.3.2 1 2.7 16.2 8.8 24.2 17.6 23.2 4.1-.5 7-3.1 8.7-7.9 3.6-10.1.4-27.3-4.5-32.3-6.2-6.4-18.8-1.4-20.4-.7l-4.5 10.8 2.9 5.9z" class="color060405 svgShape"></path><ellipse cx="106.7" cy="159.6" fill="#040605" rx="1.1" ry="1.5" transform="rotate(-2.204 106.742 159.594) scale(1.00004)" class="color060405 svgShape"></ellipse><ellipse cx="117" cy="159.5" fill="#040605" rx="1.1" ry="1.5" transform="rotate(-2.204 117.033 159.508) scale(1.00004)" class="color060405 svgShape"></ellipse><path fill="#040605" d="m112 169.4-.6-.8c.4-.3.9-.4 1.5-.4.3 0 .5-.2.6-.3 0-.2-.2-.4-.4-.6-1.6-1.7-2.3-4.1-1.8-6.4l1 .2c-.4 1.9.1 4 1.5 5.4.3.4.8.9.7 1.6-.1.6-.6 1-1.4 1.1-.7 0-1 .1-1.1.2zM108.8 177.1c-.9-.4-1.5-1.1-1.9-1.9l.9-.4c.2.6.7 1.1 1.4 1.4.6.3 1.3.3 1.9 0l.4.9c-.9.4-1.9.3-2.7 0zM125.7 147.1c-.6.4-1.3.7-2.1 1-6.1 2-22.7-1.8-23.2.6-.5 2.3-1.5 16.2-2.6 14.5-2-3.2-2.8-8.6-2.9.7.1 3.4-1 8.7-1 8.7-8.9-.2-17.4-21.1-8.7-22.5 0 0-2.6-4.1-1-7.8s13.4-24.2 35.8-8.4c.4-.6 4.4-5.3 6.1-1.9 1.6 3 4.1 12.3-.4 15.1z" class="color060405 svgShape"></path><path fill="#ffffff" d="M98.3 282.3c.5.1 6.3 2 8.1-1.5 2-3.7-10.4-1-10.4-1" class="colorfff svgShape"></path><path fill="#040605" d="M102.1 283.5c-1.7 0-3.4-.5-3.9-.6-.3-.1-.4-.4-.3-.6.1-.3.4-.4.6-.3 1 .3 5.9 1.7 7.5-1.3.2-.5.1-.6.1-.7-.8-1-6.3-.4-9.9.4-.3.1-.5-.1-.6-.4-.1-.3.1-.5.4-.6 1.6-.3 9.5-1.9 10.9 0 .2.3.4.9 0 1.7-1 1.9-3 2.4-4.8 2.4z" class="color060405 svgShape"></path><path fill="#52cca7" d="M99.9 253.5h20.5v69.2H99.9z" transform="rotate(-127.148 110.15 288.16)" class="color6193f6 svgShape"></path><path fill="#d2fff1" d="m131.6 259.1 12.3 16.3 4.9-12.2 2.5-6.2-6.6.7z" class="colord2e4ff svgShape"></path><path fill="#040605" d="m144.7 257.7 4.1 5.5 2.5-6.2z" class="color060405 svgShape"></path><path fill="#040605" d="M70.6 308.2h20.5v4.3H70.6z" transform="rotate(-127.148 80.839 310.368)" class="color060405 svgShape"></path><path fill="#2af2b5" d="m67 315.2 5.5 7.2c1.9 2.5 5.5 3 8 1.1l4.9-3.7L73 303.5l-4.9 3.7c-2.5 1.9-3 5.5-1.1 8z" class="colorf2cb2a svgShape"></path><path d="M79.9 290.9h69.2v6H79.9z" opacity=".05" transform="rotate(-37.148 114.506 293.911)"></path><path fill="#ffffff" d="M71.2 279.4h69.2v6H71.2z" opacity=".1" transform="rotate(-37.148 105.795 282.414)" class="colorfff svgShape"></path><path fill="#ffffff" d="m96.1 279.8-23.9-36.3 7.1-11L62.1 214s-18.4 19.5-17.9 27.7c.8 12.3 42.9 44.4 42.9 44.4s4.3 19.9 17 13.9c12.4-5.9-5-17.1-5.8-17.6" class="colorfff svgShape"></path><path fill="#040605" d="M99.6 301.6c-1.3 0-2.6-.3-3.8-.9-6.2-3-8.7-12.8-9.1-14.3-3.1-2.4-42.1-32.5-42.9-44.6-.5-8.4 17.3-27.3 18-28.1.1-.1.2-.2.4-.2.1 0 .3.1.4.2l17.2 18.5c.2.2.2.4.1.6l-7 10.8 23.7 36c.2.2.1.5-.1.7-.2.2-.5.1-.7-.1l-23.9-36.3c-.1-.2-.1-.4 0-.5l6.9-10.7-16.6-17.8c-2.6 2.8-17.9 19.7-17.4 27 .8 11.9 42.3 43.7 42.7 44 .1.1.2.2.2.3 0 .1 2.4 10.8 8.6 13.8 2.3 1.1 4.9 1 7.7-.3 2.6-1.3 4-2.8 4.1-4.7.3-4.3-6.4-9.8-10-12.1-.2-.1-.3-.5-.2-.7.1-.2.5-.3.7-.2 1.1.7 10.9 7 10.5 13-.1 2.3-1.7 4.1-4.7 5.5-1.7.7-3.3 1.1-4.8 1.1z" class="color060405 svgShape"></path><path fill="#2af2b5" d="M81.6 193.4s-9.8 3.5-15.2 8.8c-4.2 4.2-11.1 14-11.1 14-1.7 1.6 19.8 23.1 22.2 20.6 0 0 10.2-13.3 11.4-21.1 1.4-9.9-7.3-22.3-7.3-22.3z" class="colorf2cb2a svgShape"></path><path fill="#040605" d="M76.9 237.5h-.4c-4.4-.7-19.1-14.5-21.4-19.3-.1-.2 0-.5.2-.7.2-.1.5 0 .7.2 2.4 5 16.8 18.2 20.7 18.8h.4c.1-.1 10.1-13.2 11.2-20.8 0-.3.3-.5.6-.4.3 0 .5.3.4.6-1.1 7.8-11 20.8-11.5 21.3-.1.2-.5.3-.9.3zM173.3 124.7c-5.8 1.9-11.8.9-16.6-2.2l3-4c-.3-.2-1.5-1.1-1.4-1.1l-3 4c-3.1-2.3-5.4-5.6-6.7-9.6-3.3-10.3 2.4-21.4 12.7-24.7 10.3-3.3 21.4 2.4 24.7 12.7 3.3 10.5-2.4 21.6-12.7 24.9z" class="color060405 svgShape"></path><path fill="#040605" d="m147.1 129.8 1.3 1 10.3-13.8-1.4-1z" class="color060405 svgShape"></path><path fill="#ffffff" d="M158.3 103.2c0 6 9 11.6 9 11.6s9-5.6 9-11.6c0-3.3-2.7-6-6-6-1.1 0-2.1.3-3 .8-.9-.5-1.9-.8-3-.8-3.3 0-6 2.7-6 6z" class="colorfff svgShape"></path><path fill="#bdffeb" d="m514.7 144.7 25.1-52.8-35.7 16 4.4 9.8 15.5-10.3-13 19.4z" class="colorbdd6ff svgShape"></path><path fill="#040605" d="m508.5 117.7 7.3 1.8 8.2-12.1z" class="color060405 svgShape"></path><path fill="#c6faea" d="M513.3 221.1h-26.5c-.2 0-.4-.2-.4-.4s.2-.4.4-.4h26.5c.2 0 .4.2.4.4s-.2.4-.4.4zM513.3 234.2h-26.5c-.2 0-.4-.2-.4-.4s.2-.4.4-.4h26.5c.2 0 .4.2.4.4s-.2.4-.4.4zM508.4 227.7h-37.5c-.2 0-.4-.2-.4-.4s.2-.4.4-.4h37.5c.2 0 .4.2.4.4s-.2.4-.4.4z" class="colorc6e2fa svgShape"></path><path fill="#c6faea" d="M492.2 221.1c-.2 0-.4-.2-.4-.4v-5.6c0-.2.2-.4.4-.4s.4.2.4.4v5.6c0 .2-.2.4-.4.4zM501.5 227.7c-.2 0-.4-.2-.4-.4v-6.6c0-.2.2-.4.4-.4s.4.2.4.4v6.6c0 .2-.2.4-.4.4zM494.4 234c-.2 0-.4-.2-.4-.4v-6.4c0-.2.2-.4.4-.4s.4.2.4.4v6.4c0 .2-.2.4-.4.4zM196.7 356.3h-26.5c-.2 0-.4-.2-.4-.4s.2-.4.4-.4h26.5c.2 0 .4.2.4.4s-.1.4-.4.4zM196.7 369.5h-26.5c-.2 0-.4-.2-.4-.4s.2-.4.4-.4h26.5c.2 0 .4.2.4.4s-.1.4-.4.4zM191.9 362.9h-37.5c-.2 0-.4-.2-.4-.4s.2-.4.4-.4h37.5c.2 0 .4.2.4.4s-.2.4-.4.4z" class="colorc6e2fa svgShape"></path><path fill="#c6faea" d="M175.7 356.3c-.2 0-.4-.2-.4-.4v-5.6c0-.2.2-.4.4-.4s.4.2.4.4v5.6c0 .3-.2.4-.4.4zM185 362.9c-.2 0-.4-.2-.4-.4v-6.6c0-.2.2-.4.4-.4s.4.2.4.4v6.6c0 .2-.2.4-.4.4zM177.9 369.2c-.2 0-.4-.2-.4-.4v-6.4c0-.2.2-.4.4-.4s.4.2.4.4v6.4c0 .3-.2.4-.4.4zM178.8 148.7h-26.5c-.2 0-.4-.2-.4-.4s.2-.4.4-.4h26.5c.2 0 .4.2.4.4s-.2.4-.4.4zM178.8 161.8h-26.5c-.2 0-.4-.2-.4-.4s.2-.4.4-.4h26.5c.2 0 .4.2.4.4s-.2.4-.4.4zM174 155.2h-37.5c-.2 0-.4-.2-.4-.4s.2-.4.4-.4H174c.2 0 .4.2.4.4s-.2.4-.4.4z" class="colorc6e2fa svgShape"></path><path fill="#c6faea" d="M157.7 148.7c-.2 0-.4-.2-.4-.4v-5.6c0-.2.2-.4.4-.4s.4.2.4.4v5.6c0 .2-.2.4-.4.4zM167.1 155.2c-.2 0-.4-.2-.4-.4v-6.6c0-.2.2-.4.4-.4s.4.2.4.4v6.6c-.1.3-.2.4-.4.4zM160 161.6c-.2 0-.4-.2-.4-.4v-6.4c0-.2.2-.4.4-.4s.4.2.4.4v6.4c-.1.2-.2.4-.4.4zM492.1 100.7h-26.5c-.2 0-.4-.2-.4-.4s.2-.4.4-.4h26.5c.2 0 .4.2.4.4s-.2.4-.4.4zM492.1 113.9h-26.5c-.2 0-.4-.2-.4-.4s.2-.4.4-.4h26.5c.2 0 .4.2.4.4s-.2.4-.4.4zM487.3 107.3h-37.5c-.2 0-.4-.2-.4-.4s.2-.4.4-.4h37.5c.2 0 .4.2.4.4s-.2.4-.4.4z" class="colorc6e2fa svgShape"></path><path fill="#c6faea" d="M471.1 100.7c-.2 0-.4-.2-.4-.4v-5.6c0-.2.2-.4.4-.4s.4.2.4.4v5.6c-.1.2-.2.4-.4.4zM480.4 107.3c-.2 0-.4-.2-.4-.4v-6.6c0-.2.2-.4.4-.4s.4.2.4.4v6.6c-.1.2-.2.4-.4.4zM473.3 113.6c-.2 0-.4-.2-.4-.4v-6.4c0-.2.2-.4.4-.4s.4.2.4.4v6.4c0 .3-.2.4-.4.4z" class="colorc6e2fa svgShape"></path></svg></g></svg>