<svg id="SvgjsSvg1327" width="550" height="550" xmlns="http://www.w3.org/2000/svg" version="1.1" xmlns:xlink="http://www.w3.org/1999/xlink" ><defs id="SvgjsDefs1328"></defs><g id="SvgjsG1329"><svg xmlns="http://www.w3.org/2000/svg" data-name="Layer 1" viewBox="0 0 1100 700" width="550" height="550"><path fill="#a7f5dd" d="M118.44314,578.76479c11.20788,25.69272,30.1548,48.78852,55.69932,60.21552,14.26572,6.38172,29.9394,8.9166,45.494,10.43172a343.52757,343.52757,0,0,0,86.304-2.14752c64.214-10.04772,124.19688-39.935,188.63425-48.43632,68.80788-9.07716,138.10046,6.70284,206.505,18.43836,68.40469,11.73528,140.71549,19.13184,205.57429-5.57184,15.84278-6.0342,31.1502-14.03472,43.69464-25.438a101.88779,101.88779,0,0,0,7.3638-7.492Z" class="colora7d2f5 svgShape"></path><ellipse cx="247.859" cy="614.727" fill="#79e2c2" rx="91.361" ry="24.974" class="color79bde2 svgShape"></ellipse><path fill="#eefffa" d="M993.64948,494.6413a239.81874,239.81874,0,0,1-12.31536,44.60257c-5.7349,14.503-13.359,28.061-23.61912,39.51456H118.44974c-.34812-.77916-.69612-1.54164-1.02768-2.33736-11.0556-26.619-14.65212-55.72416-16.32612-84.51481a595.63872,595.63872,0,0,1,2.20428-99.21672c4.127-37.7076,12.31524-74.88517,25.55844-110.42149,24.77928-66.5478,68.03964-127.19521,127.09548-166.61,28.16065-18.77928,58.9734-33.66348,91.41048-43.078C426.67479,49.5578,498.643,46.65716,530.66511,50.00528c67.39356,7.06092,134.952,16.88964,199.59372,37.8732C815.43712,115.5254,896.55412,164.5868,946.2454,239.09061,995.52232,312.99765,1009.81,407.30842,993.64948,494.6413Z" class="coloreef7ff svgShape"></path><path fill="#dafef3" d="M981.33412,539.24387c-5.7349,14.503-13.359,28.061-23.61912,39.51456H118.44974c-.34812-.77916-.69612-1.54164-1.02768-2.33736-11.0556-26.619-14.65212-55.72416-16.32612-84.51481a595.63872,595.63872,0,0,1,2.20428-99.21672,121.25535,121.25535,0,0,1,40.22724-25.45908c12.51372-4.674,25.93956-7.0608,37.70784-13.39236,14.13792-7.60776,24.7626-20.30425,34.30968-33.23233,28.144-38.10552,50.98416-81.83,89.388-109.55976,27.71292-20.02236,61.26024-29.95044,94.26108-38.8014,32.18808-8.61913,65.18845-16.608,98.43769-14.60257,25.77385,1.558,50.8182,9.06637,76.42656,12.26545,57.9288,7.2432,117.89652-7.59121,174.549,6.547C809.32108,191.60373,859.95676,241.79253,875.60368,302.39c3.72936,14.4366,5.9004,29.95068,15.00048,41.752,6.74556,8.73492,16.57476,14.43648,25.06068,21.48072,27.3984,22.77384,39.7464,58.62516,48.71328,93.10092Q974.74612,498.55258,981.33412,539.24387Z" class="colordaecfe svgShape"></path><path fill="#263530" d="M634.88811,478.40518h29.40264V578.76479H634.88811c-7.1688,0-12.98028-22.46616-12.98028-50.1798S627.71931,478.40518,634.88811,478.40518Z" class="color262935 svgShape"></path><path fill="#374742" d="M651.31035,528.585c0,27.71364,5.81148,50.1798,12.98006,50.1798,7.1688,0,12.98026-22.46616,12.98026-50.1798,0-27.71341-5.81146-50.17957-12.98026-50.17957C657.12183,478.40542,651.31035,500.87158,651.31035,528.585Z" class="color373a47 svgShape"></path><path fill="#6d8c83" d="M656.18535,528.585c0,17.30532,3.62868,31.3338,8.10506,31.3338,4.47658,0,8.10526-14.02848,8.10526-31.3338,0-17.30509-3.62868-31.33369-8.10526-31.33369C659.814,497.2513,656.18535,511.2799,656.18535,528.585Z" class="color6d748c svgShape"></path><path fill="#86a59c" d="M667.74483,528.585c0-14.17957-2.43708-26.15329-5.7798-30.01813a3.18118,3.18118,0,0,1,2.32538-1.31556c4.47658,0,8.10526,14.0286,8.10526,31.33369s-3.62868,31.3338-8.10526,31.3338a3.18136,3.18136,0,0,1-2.32538-1.31568C665.30775,554.73839,667.74483,542.76455,667.74483,528.585Z" class="color868ca5 svgShape"></path><path fill="#263530" d="M439.66143,478.40518h29.40276V578.76479H439.66143c-7.16869,0-12.98017-22.46616-12.98017-50.1798S432.49274,478.40518,439.66143,478.40518Z" class="color262935 svgShape"></path><path fill="#374742" d="M456.08379,528.585c0,27.71364,5.81124,50.1798,12.98,50.1798s12.98028-22.46616,12.98028-50.1798c0-27.71341-5.81148-50.17957-12.98028-50.17957S456.08379,500.87158,456.08379,528.585Z" class="color373a47 svgShape"></path><ellipse cx="469.064" cy="528.585" fill="#6d8c83" rx="8.105" ry="31.334" class="color6d748c svgShape"></ellipse><path fill="#86a59c" d="M472.51815,528.585c0-14.17957-2.43695-26.15329-5.7798-30.01813a3.18118,3.18118,0,0,1,2.32536-1.31556c4.47672,0,8.10528,14.0286,8.10528,31.33369s-3.62856,31.3338-8.10528,31.3338a3.18136,3.18136,0,0,1-2.32536-1.31568C470.0812,554.73839,472.51815,542.76455,472.51815,528.585Z" class="color868ca5 svgShape"></path><path fill="#263530" d="M474.87351,478.40518H504.276V578.76479H474.87351c-7.1688,0-12.98028-22.46616-12.98028-50.1798S467.70471,478.40518,474.87351,478.40518Z" class="color262935 svgShape"></path><ellipse cx="504.276" cy="528.585" fill="#374742" rx="12.98" ry="50.18" class="color373a47 svgShape"></ellipse><ellipse cx="504.276" cy="528.585" fill="#6d8c83" rx="8.105" ry="31.334" class="color6d748c svgShape"></ellipse><path fill="#86a59c" d="M507.73023,528.585c0-14.17957-2.437-26.15329-5.7798-30.01813a3.181,3.181,0,0,1,2.32524-1.31556c4.47673,0,8.10528,14.0286,8.10528,31.33369s-3.62855,31.3338-8.10528,31.3338a3.18115,3.18115,0,0,1-2.32524-1.31568C505.29327,554.73839,507.73023,542.76455,507.73023,528.585Z" class="color868ca5 svgShape"></path><rect width="301.523" height="337.892" x="349.222" y="181.433" fill="#86a59c" transform="rotate(180 499.983 350.38)" class="color868ca5 svgShape"></rect><rect width="315.858" height="279.487" x="342.054" y="210.636" fill="#374742" transform="rotate(90 499.982 350.379)" class="color373a47 svgShape"></rect><rect width="118.405" height="118.405" x="394.914" y="389.903" fill="#54fcc9" transform="rotate(180 454.117 449.105)" class="colorfcc454 svgShape"></rect><rect width="50.376" height="118.405" x="513.32" y="389.903" fill="#44eab8" class="colorea9344 svgShape"></rect><polygon fill="#1e2b27" points="853.08 543.393 822.826 543.393 822.826 458.758 854.362 458.758 863.303 524.553 853.08 543.393" class="color1e202b svgShape"></polygon><polygon fill="#1e2b27" points="713.195 543.393 685.032 543.393 685.032 458.758 714.389 458.758 722.712 524.553 713.195 543.393" class="color1e202b svgShape"></polygon><path fill="#263530" d="M809.03,478.40518h29.40276V578.76479H809.03c-7.16868,0-12.98016-22.46616-12.98016-50.1798S801.86128,478.40518,809.03,478.40518Z" class="color262935 svgShape"></path><path fill="#374742" d="M825.45232,528.585c0,27.71364,5.81124,50.1798,12.98,50.1798s12.98028-22.46616,12.98028-50.1798c0-27.71341-5.81148-50.17957-12.98028-50.17957S825.45232,500.87158,825.45232,528.585Z" class="color373a47 svgShape"></path><ellipse cx="838.432" cy="528.585" fill="#6d8c83" rx="8.105" ry="31.334" class="color6d748c svgShape"></ellipse><path fill="#86a59c" d="M841.88682,528.585c0-14.17957-2.4371-26.15329-5.77982-30.01813a3.18077,3.18077,0,0,1,2.32536-1.31556c4.4766,0,8.10528,14.0286,8.10528,31.33369s-3.62868,31.3338-8.10528,31.3338a3.181,3.181,0,0,1-2.32536-1.31568C839.44972,554.73839,841.88682,542.76455,841.88682,528.585Z" class="color868ca5 svgShape"></path><path fill="#263530" d="M669.711,478.40518h29.40276V578.76479H669.711c-7.16868,0-12.98016-22.46616-12.98016-50.1798S662.54235,478.40518,669.711,478.40518Z" class="color262935 svgShape"></path><path fill="#374742" d="M686.13339,528.585c0,27.71364,5.81148,50.1798,12.98028,50.1798,7.16856,0,12.98-22.46616,12.98-50.1798,0-27.71341-5.81148-50.17957-12.98-50.17957C691.94487,478.40542,686.13339,500.87158,686.13339,528.585Z" class="color373a47 svgShape"></path><path fill="#1bf0af" d="M761.302,192.45009V519.3253H713.19543c-1.14012-26.0898-7.00884-45.96612-14.08176-45.96612-7.07316,0-12.94188,19.87632-14.08152,45.96612H650.74431V181.433Z" class="colorf0b11b svgShape"></path><ellipse cx="699.114" cy="528.585" fill="#6d8c83" rx="8.105" ry="31.334" class="color6d748c svgShape"></ellipse><path fill="#86a59c" d="M702.56787,528.585c0-14.17957-2.43706-26.15329-5.7798-30.01813a3.18118,3.18118,0,0,1,2.32536-1.31556c4.4766,0,8.10528,14.0286,8.10528,31.33369s-3.62868,31.3338-8.10528,31.3338a3.18136,3.18136,0,0,1-2.32536-1.31568C700.13081,554.73839,702.56787,542.76455,702.56787,528.585Z" class="color868ca5 svgShape"></path><path fill="#38e1ae" d="M811.11328,260.47977a24.22591,24.22591,0,0,1,23.1258,17.00844L872.624,400.47406a24.22523,24.22523,0,0,1,1.10016,7.21776V519.3253H852.51424c-1.13988-26.0898-7.00848-45.96612-14.08152-45.96612-7.0735,0-12.94212,19.87632-14.082,45.96612H761.302V260.47977Z" class="colore14338 svgShape"></path><path fill="#52cca7" d="M784.31812,274.25157h27.4943a10.41024,10.41024,0,0,1,9.97294,7.4496l34.50228,112.657v9.74856a10.338,10.338,0,0,1-9.45384,10.32372l-12.25968.74616a9.08316,9.08316,0,0,1-9.63384-9.29544,9.19977,9.19977,0,0,0-9.71484-9.37284l-30.90732,1.6182Z" class="color67a4d6 svgShape"></path><path fill="#50c3a0" d="M838.43236 404.1067v-9.74856l-34.50228-112.657a10.41 10.41 0 00-9.97284-7.4496h17.855a10.41028 10.41028 0 019.97308 7.4496l34.50228 112.657v9.74856a10.338 10.338 0 01-9.45384 10.32372l-12.25992.74616a9.03284 9.03284 0 01-4.51164-.88056A10.39473 10.39473 0 00838.43236 404.1067zM797.37028 396.5083a9.2508 9.2508 0 014.10893.71964l-17.1612.89856v-.93492z" class="color5089c3 svgShape"></path><path fill="#263530" d="M790.96276,421.8259h10.17612a6.64476,6.64476,0,0,1,6.64464,6.64476h0a6.64473,6.64473,0,0,1-6.64464,6.64464H790.96276a6.64481,6.64481,0,0,1-6.64464-6.64464h0A6.64484,6.64484,0,0,1,790.96276,421.8259Z" class="color262935 svgShape"></path><rect width="108.492" height="108.492" x="531.234" y="399.816" fill="#66ffd1" transform="rotate(180 585.48 454.062)" class="colorffd066 svgShape"></rect><rect width="22.788" height="28.655" x="574.086" y="399.816" fill="#4fedbd" transform="rotate(180 585.48 414.143)" class="colored9e4f svgShape"></rect><rect width="24.87" height="31.273" x="441.682" y="389.903" fill="#4fedbd" transform="rotate(180 454.117 405.539)" class="colored9e4f svgShape"></rect><rect width="87.133" height="87.132" x="437.714" y="302.77" fill="#66ffd1" transform="rotate(180 481.28 346.336)" class="colorffd066 svgShape"></rect><rect width="37.071" height="87.132" x="524.846" y="302.77" fill="#4fedbd" class="colored9e4f svgShape"></rect><rect width="18.302" height="23.013" x="472.129" y="302.77" fill="#4fedbd" transform="rotate(180 481.28 314.277)" class="colored9e4f svgShape"></rect><rect width="301.523" height="24.068" x="349.222" y="519.325" fill="#d1d1d1" transform="rotate(180 499.983 531.36)" class="colord1d1d1 svgShape"></rect><path fill="#b2b2b2" d="M852.70468 528.585q0-4.73544-.20424-9.25969H876.928v24.06757h-24.7476C852.51928 538.67891 852.70468 533.71667 852.70468 528.585zM712.86123 543.39287c.33936-4.714.52428-9.6762.52428-14.80788q0-4.73544-.20388-9.25969H824.36442q-.19767 4.51837-.20414 9.25969c0 5.13168.1854 10.09392.52428 14.80788zM685.04571 519.3253q-.19782 4.51837-.2041 9.25969c0 5.13168.18526 10.09392.52426 14.80788H650.74455V519.3253z" class="colorb2b2b2 svgShape"></path><path fill="#1cf7b5" d="M603.75123 524.63915h21.41268a6.71994 6.71994 0 010 13.43988H603.75123a6.71994 6.71994 0 010-13.43988zM374.80239 524.63915H396.2147a6.71994 6.71994 0 110 13.43988H374.80239a6.71994 6.71994 0 010-13.43988z" class="colorf71c55 svgShape"></path><rect width="67.221" height="20.872" x="466.373" y="519.325" fill="#f2f3f3" transform="rotate(180 499.983 529.762)" class="colorf2f2f3 svgShape"></rect><path fill="#374742" d="M860.75442,410.08606h2.75446v-7.92444h9.44a5.67021,5.67021,0,0,0,5.66352-5.66484v-6.59424H875.858v6.59424a2.91294,2.91294,0,0,1-2.909,2.91036h-12.1945Z" class="color373a47 svgShape"></path><path fill="#86a59c" d="M872.92012,354.0781h8.6316a8.11272,8.11272,0,0,1,8.11272,8.11272v21.46a8.11116,8.11116,0,0,1-8.11116,8.11116h-8.63316a8.11272,8.11272,0,0,1-8.11272-8.11272v-21.4584A8.11272,8.11272,0,0,1,872.92012,354.0781Z" class="color868ca5 svgShape"></path><path fill="#e5e5e5" d="M872.919,356.83258h8.633a5.358,5.358,0,0,1,5.358,5.358v21.45864a5.35812,5.35812,0,0,1-5.35812,5.35812h-8.6328a5.358,5.358,0,0,1-5.358-5.358V362.19046A5.35788,5.35788,0,0,1,872.919,356.83258Z" class="colore5e5e5 svgShape"></path><path fill="#ffffff" d="M872.91916,389.0071a5.358,5.358,0,0,1-5.358-5.35776V362.19058a5.32192,5.32192,0,0,1,1.937-4.09212c8.02692,3.13776,13.80828,11.83368,13.80828,22.09536a26.261,26.261,0,0,1-1.50432,8.7882c-.0846.004-.16414.02508-.25008.02508Z" opacity=".7" class="colorfff svgShape"></path><rect width="8.097" height="4.599" x="857.926" y="404.043" fill="#263530" transform="rotate(180 861.975 406.342)" class="color262935 svgShape"></rect><path fill="#374742" d="M195.5483,114.5324h58.45092a0,0,0,0,1,0,0v31.7461a6.7895,6.7895,0,0,1-6.7895,6.7895H202.3378a6.7895,6.7895,0,0,1-6.7895-6.7895V114.5324A0,0,0,0,1,195.5483,114.5324Z" class="color373a47 svgShape"></path><polygon fill="#00895f" points="283.041 336.475 283.041 579.245 247.391 579.245 233.026 459.679 206.192 336.475 283.041 336.475" class="color004b89 svgShape"></polygon><path fill="#374742" d="M230.80274,613.48535l-18.85932-2.43144-6.90336-9.51888H169.3757v21.01656h73.6332A15.56781,15.56781,0,0,0,230.80274,613.48535Z" class="color373a47 svgShape"></path><path fill="#263530" d="M169.3757,622.55159v6.3876h75.01644a15.50777,15.50777,0,0,0-1.38324-6.3876Z" class="color262935 svgShape"></path><path fill="#374742" d="M308.76458,591.195,289.905,588.76367l-6.90324-9.51876H247.33742v21.01632h73.63332A15.56929,15.56929,0,0,0,308.76458,591.195Z" class="color373a47 svgShape"></path><path fill="#263530" d="M247.33742,600.26123v6.38784h75.01644a15.51071,15.51071,0,0,0-1.38312-6.38784Z" class="color262935 svgShape"></path><polygon fill="#00986a" points="175.142 336.475 169.376 601.535 205.04 601.535 252.407 361.438 258.49 336.475 175.142 336.475" class="color005c98 svgShape"></polygon><path fill="#2cdba6" d="M289.94919,208.676v127.7916H268.9439V208.676c0-15.03348-12.96264-27.216-28.959-27.216h21.02244C276.98618,181.46,289.94919,193.64253,289.94919,208.676Z" class="colordb2c41 svgShape"></path><path fill="#3be0ae" d="M268.9439,208.676v127.7916H175.13546V182.83569a1.41839,1.41839,0,0,1,1.464-1.37568H239.9849C255.98126,181.46,268.9439,193.64253,268.9439,208.676Z" class="colore03b47 svgShape"></path><rect width="95.198" height="104.764" x="210.891" y="254.365" fill="#4fedbd" class="colored9e4f svgShape"></rect><rect width="74.301" height="104.764" x="306.089" y="254.365" fill="#66ffd1" transform="rotate(180 343.24 306.747)" class="colorffd066 svgShape"></rect><polygon fill="#8ee6cb" points="209.408 149.104 209.408 171.651 226.717 186.281 244.026 171.651 244.026 159.947 209.408 149.104" class="colore6b68e svgShape"></polygon><path fill="#abf1dc" d="M204.99146,109.536v44.571a21.72552,21.72552,0,0,0,43.451,0V109.536Z" class="colorf1caab svgShape"></path><path fill="#1bf0af" d="M235.00562,97.1936h-21.5004a20.70406,20.70406,0,0,0-20.7042,20.70432V135.815h62.9088V117.89792A20.70406,20.70406,0,0,0,235.00562,97.1936Z" class="colorf0b11b svgShape"></path><path fill="#1cf7b5" d="M236.0969,97.2488c-.36348-.01908-.72288-.0552-1.09128-.0552h-21.5004a20.70406,20.70406,0,0,0-20.7042,20.70432V135.815h23.68344V117.89792A20.68657,20.68657,0,0,1,236.0969,97.2488Z" class="colorf71c55 svgShape"></path><rect width="82.686" height="4.051" x="192.801" y="131.764" fill="#16d198" class="colord19916 svgShape"></rect><polygon fill="#70f4cc" points="209.408 171.651 226.717 186.281 216.467 202.46 203.661 181.461 209.408 171.651" class="colorf4d070 svgShape"></polygon><polygon fill="#70f4cc" points="244.026 171.651 226.717 186.281 236.967 202.46 249.773 181.461 244.026 171.651" class="colorf4d070 svgShape"></polygon><path fill="#48e7b7" d="M157.3859,201.01857v93.14616a19.47883,19.47883,0,0,0,10.50984,17.291l81.87768,38.75737,12.84984-26.74825L203.116,291.14265a13.93941,13.93941,0,0,1-6.61584-11.8608V201.01857A19.55707,19.55707,0,0,0,176.943,181.46145h0A19.55714,19.55714,0,0,0,157.3859,201.01857Z" class="colore7484c svgShape"></path><path fill="#abf1dc" d="M251.91374,345.75766l10.70952,15.68076,13.88508,6.80112,15.89136-1.97076,10.86264-7.48368h-10.6614L281.33606,347.118l-.80472-9.05221h12.47185a9.25338,9.25338,0,0,0,9.25343-9.25332h0l-30.57624-4.62672-5.4312,2.21268-4.6446-.81312Z" class="colorf1caab svgShape"></path><rect width="18.804" height="21.724" x="333.838" y="254.365" fill="#4fedbd" class="colored9e4f svgShape"></rect><path fill="#79e2c2" d="M877.81228,578.76479H369.83559a5.49408,5.49408,0,1,0,0,10.98816H877.81228a5.49408,5.49408,0,1,0,0-10.98816Z" class="color79bde2 svgShape"></path></svg></g></svg>