<svg xmlns="http://www.w3.org/2000/svg" viewBox="0 0 256 256" width="256" height="256"><circle cx="108.602" cy="150.971" r="94.907" fill="#73cdab" class="color5FCDFF svgShape"></circle><path fill="#6fd9be" d="M123.835 244.657a96.534 96.534 0 0 1-15.24 1.219c-52.405 0-94.893-42.489-94.893-94.913 0-52.405 42.488-94.893 94.893-94.893 5.182 0 10.282.427 15.24 1.219-45.171 7.295-79.653 46.451-79.653 93.674 0 47.223 34.483 86.399 79.653 93.694z" class="color73D7F9 svgShape"></path><path fill="#30ffca" d="M203.509 150.963c0 52.425-42.488 94.913-94.913 94.913a96.653 96.653 0 0 1-15.24-1.219c45.191-7.295 79.673-46.451 79.673-93.694 0-47.223-34.482-86.379-79.673-93.674a96.653 96.653 0 0 1 15.24-1.219c52.424 0 94.913 42.489 94.913 94.893z" class="color30B6FF svgShape"></path><circle cx="191.521" cy="60.905" r="50.783" fill="#ff8d4a" class="colorFF4A73 svgShape"></circle><path fill="#f9a573" d="M199.672 111.035a51.695 51.695 0 0 1-8.155.652c-28.041 0-50.776-22.735-50.776-50.786 0-28.041 22.735-50.776 50.776-50.776 2.773 0 5.502.228 8.155.652-24.17 3.903-42.621 24.855-42.621 50.123 0 25.27 18.451 46.232 42.621 50.135z" class="colorF973A3 svgShape"></path><path fill="#ea5a05" d="M242.304 60.901c0 28.052-22.735 50.786-50.786 50.786-2.773 0-5.502-.228-8.155-.652 24.181-3.903 42.632-24.855 42.632-50.134 0-25.268-18.451-46.22-42.632-50.123a51.695 51.695 0 0 1 8.155-.652c28.052 0 50.786 22.735 50.786 50.775z" class="colorEA2A6A svgShape"></path><g fill="#000000" class="color5F266D svgShape"><path d="m131.003 132.148-18.401 11.579V95.348a4 4 0 0 0-8 0v55.623c0 3.153 3.485 5.052 6.13 3.385l24.531-15.437a4 4 0 1 0-4.26-6.771z"></path><path d="M246.3 60.91c0-30.21-24.57-54.79-54.78-54.79-28.62 0-52.18 22.07-54.58 50.08C73.589 37.223 9.7 84.936 9.7 150.97c0 54.54 44.36 98.91 98.9 98.91 69.45 0 117.54-70.207 92.11-134.97 25.85-4.38 45.59-26.93 45.59-54zM108.6 241.88c-50.12 0-90.9-40.78-90.9-90.91 0-61.643 60.531-105.701 119.16-86.4 1.994 30.065 28.085 52.091 55.52 51.11 25.247 59.679-18.853 126.2-83.78 126.2zm82.92-134.19c-25.791 0-46.78-21.003-46.78-46.78 0-25.795 20.981-46.79 46.78-46.79 25.8 0 46.78 20.99 46.78 46.79 0 25.771-20.958 46.78-46.78 46.78z"></path><path d="M191.32 27.92c-2.21 0-4 1.79-4 4v31c0 2.21 1.79 4 4 4s4-1.79 4-4v-31c0-2.21-1.79-4-4-4zm0 46c-2.21 0-4 1.79-4 4v10.61c0 2.21 1.79 4 4 4s4-1.79 4-4V77.92c0-2.21-1.79-4-4-4z"></path></g></svg>