<svg xmlns="http://www.w3.org/2000/svg" xmlns:xlink="http://www.w3.org/1999/xlink" viewBox="0 0 100 100" width="100" height="100" preserveAspectRatio="xMidYMid meet" style="width: 100%; height: 100%; transform: translate3d(0px, 0px, 0px); content-visibility: visible;"><defs><clipPath id="__lottie_element_66"><rect width="100" height="100" x="0" y="0"></rect></clipPath></defs><g clip-path="url(#__lottie_element_66)"><g transform="matrix(1,0,0,1,9.75,9.75)" opacity="1" style="display: block;"><g opacity="1" transform="matrix(1,0,0,1,45.25,50.25)"><path fill="rgb(62,141,117)" fill-opacity="1" d=" M15,30 C15,30 -15,30 -15,30 C-20.523000717163086,30 -25,25.523000717163086 -25,20 C-25,20 -25,-20 -25,-20 C-25,-25.523000717163086 -20.523000717163086,-30 -15,-30 C-15,-30 15,-30 15,-30 C20.523000717163086,-30 25,-25.523000717163086 25,-20 C25,-20 25,20 25,20 C25,25.523000717163086 20.523000717163086,30 15,30z"></path></g><g opacity="1" transform="matrix(1,0,0,1,30.25,40.25)"><path fill="rgb(60,245,190)" fill-opacity="1" d=" M20,30 C20,30 20,-40 20,-40 C20,-40 15,-35 15,-35 C15,-35 10,-40 10,-40 C10,-40 5,-35 5,-35 C5,-35 0,-40 0,-40 C0,-40 -5,-35 -5,-35 C-5,-35 -10,-40 -10,-40 C-10,-40 -15,-35 -15,-35 C-15,-35 -20,-40 -20,-40 C-20,-40 -25,-35 -25,-35 C-25,-35 -30,-40 -30,-40 C-30,-40 -30,30 -30,30 C-30,35.52299880981445 -25.523000717163086,40 -20,40 C-20,40 30,40 30,40 C24.476999282836914,40 20,35.52299880981445 20,30z"></path></g><g opacity="1" transform="matrix(1,0,0,1,0,0)"><g opacity="1" transform="matrix(1,0,0,1,25.25,47.75)"><path fill="rgb(255,255,255)" fill-opacity="1" d=" M12.5,2.5 C12.5,2.5 -12.5,2.5 -12.5,2.5 C-13.880999565124512,2.5 -15,1.38100004196167 -15,0 C-15,-1.38100004196167 -13.880999565124512,-2.5 -12.5,-2.5 C-12.5,-2.5 12.5,-2.5 12.5,-2.5 C13.880999565124512,-2.5 15,-1.38100004196167 15,0 C15,1.38100004196167 13.880999565124512,2.5 12.5,2.5z"></path></g><g opacity="1" transform="matrix(1,0,0,1,17.75,57.75)"><path fill="rgb(255,255,255)" fill-opacity="1" d=" M5,2.5 C5,2.5 -5,2.5 -5,2.5 C-6.38100004196167,2.5 -7.5,1.38100004196167 -7.5,0 C-7.5,-1.38100004196167 -6.38100004196167,-2.5 -5,-2.5 C-5,-2.5 5,-2.5 5,-2.5 C6.38100004196167,-2.5 7.5,-1.38100004196167 7.5,0 C7.5,1.38100004196167 6.38100004196167,2.5 5,2.5z"></path></g><g opacity="1" transform="matrix(1,0,0,1,0,0)"><g opacity="1" transform="matrix(1,0,0,1,14.25,25.25)"><path stroke-linecap="round" stroke-linejoin="round" fill-opacity="0" stroke="rgb(82,204,166)" stroke-opacity="1" stroke-width="2" d=" M-4,8 C-4,8 0,8 0,8 C2.2090001106262207,8 4,6.209000110626221 4,4 C4,1.7910000085830688 2.2090001106262207,0 0,0 C-2.2090001106262207,0 -4,-1.7910000085830688 -4,-4 C-4,-6.209000110626221 -2.2090001106262207,-8 0,-8 C0,-8 4,-8 4,-8"></path></g><g opacity="1" transform="matrix(1,0,0,1,0,0)"><path stroke-linecap="round" stroke-linejoin="round" fill-opacity="0" stroke="rgb(82,204,166)" stroke-opacity="1" stroke-width="2" d=" M14.25,15.25 C14.25,15.25 14.25,17.25 14.25,17.25"></path></g><g opacity="1" transform="matrix(1,0,0,1,0,0)"><path stroke-linecap="round" stroke-linejoin="round" fill-opacity="0" stroke="rgb(82,204,166)" stroke-opacity="1" stroke-width="2" d=" M14.25,33.25 C14.25,33.25 14.25,35.25 14.25,35.25"></path></g></g></g></g><g transform="matrix(1,0,0,1,4.75,-10.25)" opacity="1" style="display: block;"><g opacity="1" transform="matrix(1,0,0,1,75.25,60.25)"><path fill="rgb(194,253,134)" fill-opacity="1" d=" M-15,0 C-15,-8.284000396728516 -8.284000396728516,-15 0,-15 C8.284000396728516,-15 15,-8.284000396728516 15,0 C15,8.284000396728516 8.284000396728516,15 0,15 C-8.284000396728516,15 -15,8.284000396728516 -15,0z"></path></g><g opacity="1" transform="matrix(1,0,0,1,76,61)"><path stroke-linecap="round" stroke-linejoin="round" fill-opacity="0" stroke="rgb(255,255,255)" stroke-opacity="1" stroke-width="2" d=" M-5.302999973297119,0 C-5.302999973297119,0 -1.7669999599456787,3.5360000133514404 -1.7669999599456787,3.5360000133514404 C-1.7669999599456787,3.5360000133514404 5.302999973297119,-3.5360000133514404 5.302999973297119,-3.5360000133514404"></path></g></g></g></svg>