<svg xmlns="http://www.w3.org/2000/svg" viewBox="0 0 48 48" width="256" height="256"><g data-name="Bill Success"><path fill="#6fd9be" d="M31 21v25l-3-2-3 2-3-2-3 2-3-2-3 2-3-2-3 2-3-2-3 2V5a4 4 0 0 1 4-4h29" class="colorfff svgShape"></path><path fill="#73cdab" d="M42 21H31V5a4 4 0 0 1 8 0v2" class="color7c6f66 svgShape"></path><path fill="#6fd9be" d="M43 21a4 4 0 0 1-4-4V7h8v10a4 4 0 0 1-4 4Z" class="colorfff svgShape"></path><path fill="#ea5a05" d="M16.51 11h-1a1.5 1.5 0 0 1-.05-3H20V6h-3V4h-2v2a3.5 3.5 0 0 0 .49 7h1a1.5 1.5 0 0 1 1 2.56c-.63.62-1 .44-5.56.42v2h3v2h2v-2.04a3.42 3.42 0 0 0 2-1A3.51 3.51 0 0 0 16.51 11Z" class="colorffbe1d svgShape"></path><path fill="#73cdab" d="M4 24h6v2H4zM12 24h16v2H12zM4 28h6v2H4zM12 28h16v2H12zM4 32h6v2H4zM12 32h16v2H12zM4 36h6v2H4zM12 36h16v2H12z" class="color7c6f66 svgShape"></path><circle cx="29" cy="38" r="9" fill="#ea5a05" class="colorffbe1d svgShape"></circle><path d="M40 6V5a5 5 0 0 0-5-5H5a5 5 0 0 0-5 5v42.87l4-2.67 3 2 3-2 3 2 3-2 3 2 3-2a10.58 10.58 0 0 0 7 2.8 10.13 10.13 0 0 0 3-.46c9.3-2.94 9.32-16.14 0-19.08V22h11a5 5 0 0 0 5-5V6ZM19 44.8l-3-2-3 2-3-2-3 2-3-2-2 1.33V5a3 3 0 0 1 3-3h26a4.92 4.92 0 0 0-1 3v23.05a10 10 0 0 0-9.26 15.59ZM37 38a8 8 0 1 1-7-7.94A8 8 0 0 1 37 38Zm-5-18V5a3 3 0 0 1 6 0c0 12.66-.34 13.24 1 15Zm14-3a3 3 0 0 1-6 0V8h6Z"></path><path fill="#6fd9be" d="M27 42.41 23.59 39 25 37.59l2 2 6-6L34.41 35 27 42.41z" class="colorfff svgShape"></path></g></svg>